<svg xmlns="http://www.w3.org/2000/svg" width="32" height="32" viewBox="0 0 823 823" version="1.1"><path d="M 561.500 113.109 C 551.974 114.481, 538.263 118.753, 528.414 123.416 C 502.186 135.834, 480.843 157.603, 469.814 183.186 C 444.215 242.562, 471.173 312.311, 530.456 340.093 C 535.260 342.344, 544.435 345.569, 550.845 347.260 C 561.729 350.131, 563.691 350.338, 580.500 350.389 C 596.918 350.438, 599.379 350.209, 608.500 347.782 C 626.601 342.965, 640.465 336.101, 654.212 325.150 C 687.291 298.800, 704.596 255.930, 698.587 215.222 C 689.716 155.117, 638.885 111.479, 578.500 112.126 C 572.450 112.191, 564.800 112.633, 561.500 113.109 M 244 160.021 C 215.359 160.689, 211.274 161.271, 202 166.008 C 190.857 171.700, 180.479 184.050, 176.129 196.797 L 173.500 204.500 173.233 405.750 L 172.967 607 183.358 607 C 189.074 607, 195.108 607.272, 196.769 607.604 L 199.787 608.207 200.145 622.880 C 200.498 637.336, 200.555 637.656, 204.001 644.527 C 207.778 652.053, 213.444 656.918, 220.823 658.967 C 226.866 660.646, 252.853 660.269, 258.266 658.425 C 264.622 656.259, 271.340 650.049, 274.654 643.275 C 277.230 638.009, 277.449 636.568, 277.832 622.310 L 278.243 607 411.536 607 L 544.828 607 545.184 623.250 C 545.501 637.745, 545.796 640.072, 547.912 644.794 C 549.265 647.813, 552.037 651.588, 554.365 653.580 C 560.802 659.090, 566.582 660.271, 584.858 659.812 C 599.391 659.446, 600.854 659.232, 605.500 656.798 C 611.871 653.460, 616.297 648.827, 619.160 642.500 C 621.113 638.182, 621.476 635.420, 621.818 622.250 L 622.214 607 635.107 607 L 648 607 648 501 L 648 395 437.336 395 L 226.672 395 227.336 333.335 C 227.701 299.419, 228 258.469, 228 242.335 L 228 213 317.016 213 L 406.033 213 405.766 186.250 L 405.500 159.500 338.500 159.440 C 301.650 159.407, 259.125 159.668, 244 160.021 M 557.500 180.608 C 535.844 184.473, 512.780 195.790, 496.090 210.739 L 490.733 215.537 503.463 227.768 C 510.464 234.496, 516.519 240, 516.918 240 C 517.317 240, 520.761 237.513, 524.572 234.474 C 533.222 227.575, 546.894 220.780, 558 217.861 C 569.903 214.733, 590.894 214.720, 602.500 217.834 C 613.094 220.676, 627.033 227.640, 636.008 234.574 L 643.279 240.192 656.017 227.483 L 668.755 214.773 665.127 211.511 C 648.343 196.413, 623.700 184.399, 601.615 180.548 C 590.592 178.626, 568.434 178.656, 557.500 180.608 M 570.510 251.175 C 563.847 252.446, 554.515 257.002, 548.080 262.126 L 542.827 266.308 561.154 284.654 C 571.233 294.744, 579.939 303, 580.500 303 C 581.061 303, 589.792 294.719, 599.901 284.599 L 618.283 266.197 611.391 261.103 C 598.593 251.641, 585.166 248.380, 570.510 251.175 M 227.999 465 C 227.998 472.975, 227.700 496.038, 227.336 516.250 L 226.676 553 410.838 553 L 595 553 595 502.005 L 595 451.011 411.500 450.755 L 228 450.500 227.999 465 M 254 498.875 C 254 510.906, 253.719 522.156, 253.375 523.875 L 252.750 527 306.875 527 L 361 527 361 502 L 361 477 307.500 477 L 254 477 254 498.875 M 461 502 L 461 527 514.500 527 L 568 527 568 502 L 568 477 514.500 477 L 461 477 461 502" stroke="none" fill="#fbfafa" fill-rule="evenodd"/><path d="M 198.500 4.653 C 161.640 7.799, 133.212 16.214, 104.479 32.487 C 53.728 61.228, 17.757 111.804, 6.610 170.094 C 2.983 189.061, 2.886 196.131, 3.216 418 C 3.575 659.241, 2.967 637.224, 10.023 664.589 C 21.050 707.358, 48.242 747.790, 83.748 774.213 C 111.435 794.818, 139.362 806.280, 180 813.719 C 188.797 815.329, 205.485 815.482, 405.500 815.789 C 562.856 816.031, 624.486 815.810, 632.500 814.976 C 691.445 808.837, 743.826 779.868, 777.634 734.711 C 798.447 706.912, 810.993 676.496, 816.701 640 C 818.392 629.189, 818.500 615.435, 818.500 410.500 C 818.500 170.159, 818.868 185.335, 812.412 159.553 C 796.833 97.347, 754.616 47.449, 696.480 22.530 C 677.837 14.539, 662.159 10.130, 638.545 6.238 C 629.438 4.737, 608.619 4.569, 415.500 4.447 C 298.350 4.373, 200.700 4.465, 198.500 4.653 M 561.500 113.109 C 551.974 114.481, 538.263 118.753, 528.414 123.416 C 502.186 135.834, 480.843 157.603, 469.814 183.186 C 444.215 242.562, 471.173 312.311, 530.456 340.093 C 535.260 342.344, 544.435 345.569, 550.845 347.260 C 561.729 350.131, 563.691 350.338, 580.500 350.389 C 596.918 350.438, 599.379 350.209, 608.500 347.782 C 626.601 342.965, 640.465 336.101, 654.212 325.150 C 687.291 298.800, 704.596 255.930, 698.587 215.222 C 689.716 155.117, 638.885 111.479, 578.500 112.126 C 572.450 112.191, 564.800 112.633, 561.500 113.109 M 244 160.021 C 215.359 160.689, 211.274 161.271, 202 166.008 C 190.857 171.700, 180.479 184.050, 176.129 196.797 L 173.500 204.500 173.233 405.750 L 172.967 607 183.358 607 C 189.074 607, 195.108 607.272, 196.769 607.604 L 199.787 608.207 200.145 622.880 C 200.498 637.336, 200.555 637.656, 204.001 644.527 C 207.778 652.053, 213.444 656.918, 220.823 658.967 C 226.866 660.646, 252.853 660.269, 258.266 658.425 C 264.622 656.259, 271.340 650.049, 274.654 643.275 C 277.230 638.009, 277.449 636.568, 277.832 622.310 L 278.243 607 411.536 607 L 544.828 607 545.184 623.250 C 545.501 637.745, 545.796 640.072, 547.912 644.794 C 549.265 647.813, 552.037 651.588, 554.365 653.580 C 560.802 659.090, 566.582 660.271, 584.858 659.812 C 599.391 659.446, 600.854 659.232, 605.500 656.798 C 611.871 653.460, 616.297 648.827, 619.160 642.500 C 621.113 638.182, 621.476 635.420, 621.818 622.250 L 622.214 607 635.107 607 L 648 607 648 501 L 648 395 437.336 395 L 226.672 395 227.336 333.335 C 227.701 299.419, 228 258.469, 228 242.335 L 228 213 317.016 213 L 406.033 213 405.766 186.250 L 405.500 159.500 338.500 159.440 C 301.650 159.407, 259.125 159.668, 244 160.021 M 557.500 180.608 C 535.844 184.473, 512.780 195.790, 496.090 210.739 L 490.733 215.537 503.463 227.768 C 510.464 234.496, 516.519 240, 516.918 240 C 517.317 240, 520.761 237.513, 524.572 234.474 C 533.222 227.575, 546.894 220.780, 558 217.861 C 569.903 214.733, 590.894 214.720, 602.500 217.834 C 613.094 220.676, 627.033 227.640, 636.008 234.574 L 643.279 240.192 656.017 227.483 L 668.755 214.773 665.127 211.511 C 648.343 196.413, 623.700 184.399, 601.615 180.548 C 590.592 178.626, 568.434 178.656, 557.500 180.608 M 570.510 251.175 C 563.847 252.446, 554.515 257.002, 548.080 262.126 L 542.827 266.308 561.154 284.654 C 571.233 294.744, 579.939 303, 580.500 303 C 581.061 303, 589.792 294.719, 599.901 284.599 L 618.283 266.197 611.391 261.103 C 598.593 251.641, 585.166 248.380, 570.510 251.175 M 227.999 465 C 227.998 472.975, 227.700 496.038, 227.336 516.250 L 226.676 553 410.838 553 L 595 553 595 502.005 L 595 451.011 411.500 450.755 L 228 450.500 227.999 465 M 254 498.875 C 254 510.906, 253.719 522.156, 253.375 523.875 L 252.750 527 306.875 527 L 361 527 361 502 L 361 477 307.500 477 L 254 477 254 498.875 M 461 502 L 461 527 514.500 527 L 568 527 568 502 L 568 477 514.500 477 L 461 477 461 502" stroke="none" fill="#db2b24" fill-rule="evenodd"/></svg>